<?xml version="1.0" encoding="utf-8"?>
<!-- Generator: Adobe Illustrator 23.0.1, SVG Export Plug-In . SVG Version: 6.00 Build 0)  -->
<svg version="1.1" id="Layer_1" xmlns="http://www.w3.org/2000/svg" xmlns:xlink="http://www.w3.org/1999/xlink" x="0px" y="0px"
	 viewBox="0 0 32 32" style="enable-background:new 0 0 32 32;" xml:space="preserve">
<style type="text/css">
	.st0{fill:#857C52;}
</style>
<path class="st0" d="M29.9,6.7c0-0.1-0.1-0.1-0.1-0.2c0,0,0-0.1,0-0.1c-0.1-0.1-0.2-0.2-0.3-0.2l-0.2-0.1H2.9c-0.1,0-0.1,0-0.2,0
	L2.6,6.2c-0.1,0-0.1,0.1-0.2,0.1c-0.1,0-0.1,0.1-0.2,0.1c0,0,0,0.1,0,0.1C2.1,6.6,2,6.7,2,6.9C2,6.9,2,7,2,7v18c0,0.6,0.4,1,1,1h26
	c0.6,0,1-0.4,1-1V7c0,0,0-0.1,0-0.1C30,6.8,30,6.7,29.9,6.7z M26.1,8L16,15.7L5.9,8H26.1z M28,24H4V9l11.4,8.8
	c0.4,0.3,0.9,0.3,1.2,0L28,9V24z"/>
</svg>
