<?xml version="1.0" encoding="utf-8"?>
<!-- Generator: Adobe Illustrator 23.0.1, SVG Export Plug-In . SVG Version: 6.00 Build 0)  -->
<svg version="1.1" id="Layer_1" xmlns="http://www.w3.org/2000/svg" xmlns:xlink="http://www.w3.org/1999/xlink" x="0px" y="0px"
	 viewBox="0 0 24 24" style="enable-background:new 0 0 24 24;" xml:space="preserve">
<style type="text/css">
	.st0{fill:#857C52;}
</style>
<path class="st0" d="M19,5.3V2h1c0.6,0,1-0.4,1-1s-0.4-1-1-1H4C3.4,0,3,0.4,3,1s0.4,1,1,1h1v3.3c0,2.7,1.5,5.1,3.9,6.3L9.8,12
	l-0.9,0.4C6.5,13.6,5,16.1,5,18.7V22H4c-0.6,0-1,0.4-1,1s0.4,1,1,1h16c0.6,0,1-0.4,1-1s-0.4-1-1-1h-1v-3.3c0-2.7-1.5-5.1-3.9-6.3
	L14.2,12l0.9-0.4C17.5,10.4,19,7.9,19,5.3z M7,5.3V2h10v3.3c0,1.9-1.1,3.6-2.8,4.5L12,10.9L9.8,9.8C8.1,8.9,7,7.2,7,5.3z M17,18.7
	V22H7v-3.3c0-1.9,1.1-3.6,2.8-4.5l2.2-1.1l2.2,1.1C15.9,15.1,17,16.8,17,18.7z"/>
<path class="st0" d="M10.7,8c0.5,0.2,1.1,0,1.3-0.5c0.2-0.5,0-1.1-0.4-1.3C11.2,6,11,5.7,11,5.3c0-0.6-0.4-1-1-1s-1,0.4-1,1
	C9,6.4,9.6,7.5,10.7,8z M13.3,16c-0.5-0.2-1.1,0-1.3,0.5c-0.2,0.5,0,1.1,0.4,1.3c0.3,0.2,0.6,0.5,0.6,0.9c0,0.6,0.4,1,1,1s1-0.4,1-1
	C15,17.6,14.4,16.5,13.3,16z"/>
</svg>
