<?xml version="1.0" encoding="utf-8"?>
<!-- Generator: Adobe Illustrator 23.0.1, SVG Export Plug-In . SVG Version: 6.00 Build 0)  -->
<svg version="1.1" id="Layer_1" xmlns="http://www.w3.org/2000/svg" xmlns:xlink="http://www.w3.org/1999/xlink" x="0px" y="0px"
	 viewBox="0 0 32 32" style="enable-background:new 0 0 32 32;" xml:space="preserve">
<style type="text/css">
	.st0{fill:#857C52;}
</style>
<path class="st0" d="M23.5,20.9c-1.2-1.2-3.1-1.2-4.2,0c0,0,0,0,0,0l-1.5,1.5c-1.6-1-3.1-2.3-4.5-3.6c-1.4-1.4-2.6-2.9-3.6-4.5
	l1.4-1.4c1.2-1.2,1.2-3.1,0-4.2c0,0,0,0,0,0L8.2,5.7C7.7,5.2,6.9,4.8,6.1,4.8l0,0C5.3,4.8,4.6,5.2,4,5.7L2.6,7.1
	C1.3,8.5,0.7,10.4,1,12.3c0.3,3.8,2.8,8.3,6.6,12.1s8.4,6.3,12.1,6.6c0.3,0,0.6,0,0.8,0c1.6,0.1,3.2-0.5,4.4-1.6l1.4-1.4
	c0.6-0.6,0.9-1.3,0.9-2.1c0-0.8-0.3-1.6-0.9-2.1L23.5,20.9z M24.9,26.6l-1.4,1.4c-1,0.8-2.4,1.2-3.7,1c-3.3-0.3-7.4-2.6-10.8-6
	s-5.7-7.5-6-10.8c-0.2-1.3,0.1-2.6,1-3.7l1.4-1.4C5.6,7,5.9,6.8,6.1,6.8l0,0c0.3,0,0.5,0.1,0.7,0.3L9.7,10c0.4,0.4,0.4,1,0,1.4l-2,2
	c-0.3,0.3-0.4,0.8-0.2,1.2c1.2,2,2.7,3.9,4.3,5.6c1.7,1.7,3.5,3.1,5.6,4.3c0.4,0.2,0.9,0.2,1.2-0.2l2-2c0.4-0.4,1-0.4,1.4,0l2.8,2.8
	l0,0c0.2,0.2,0.3,0.4,0.3,0.7C25.1,26.2,25,26.4,24.9,26.6z M26.6,5.4C23.8,2.6,20,1,16,1c-0.6,0-1,0.4-1,1s0.4,1,1,1
	c7.2,0,13,5.8,13,13c0,0,0,0.1,0,0.1c0,0.6,0.4,1,1,1l0,0c0.6,0,1-0.4,1-1C31,12.1,29.5,8.2,26.6,5.4z"/>
<path class="st0" d="M20.9,11.1c1.1,1.1,1.8,2.7,1.8,4.3c0,0.6,0.4,1,1,1l0,0c0.6,0,1-0.4,1-1c0.1-4.4-3.5-8-7.9-8.1
	c0,0-0.1,0-0.1,0c-0.6,0-1,0.4-1,1s0.4,1,1,1C18.3,9.3,19.8,10,20.9,11.1z"/>
</svg>
